<svg width="62" height="36" viewBox="0 0 62 36" fill="none" xmlns="http://www.w3.org/2000/svg">
<path d="M2.51581 1.86592H19.1672C21.0024 1.86592 22.6269 2.22904 24.0408 2.95528C25.4548 3.65126 26.5528 4.66496 27.335 5.9964C28.1172 7.29757 28.5083 8.79543 28.5083 10.49V14.7112C28.5083 16.4663 28.1021 18.0247 27.2899 19.3864C26.4776 20.7178 25.3344 21.7618 23.8603 22.5183C22.4163 23.2445 20.7316 23.6076 18.8062 23.6076H8.74317V33.6388H2.51581V1.86592ZM18.716 18.1609C19.7689 18.1609 20.6263 17.828 21.2882 17.1623C21.95 16.4663 22.2809 15.5585 22.2809 14.4389V10.7623C22.2809 9.70323 21.9801 8.87108 21.3784 8.26589C20.8068 7.63043 20.0397 7.3127 19.077 7.3127H8.74317V18.1609H18.716Z" fill="#FBF503"/>
<path d="M42.6933 34.0019C40.3768 34.0019 38.3311 33.5026 36.5562 32.504C34.8113 31.5055 33.4576 30.0984 32.4949 28.2828C31.5322 26.4369 31.0508 24.3187 31.0508 21.9282V13.5765C31.0508 11.186 31.5322 9.0829 32.4949 7.26731C33.4876 5.42146 34.8715 3.99925 36.6464 3.00067C38.4515 2.0021 40.5273 1.50281 42.8738 1.50281H47.6571C49.9134 1.50281 51.899 1.98696 53.6138 2.95528C55.3285 3.92359 56.6522 5.28529 57.5848 7.04036C58.5475 8.76517 59.0289 10.7775 59.0289 13.0772H52.8917C52.8917 11.2616 52.4104 9.80914 51.4477 8.71978C50.485 7.60017 49.2215 7.04036 47.6571 7.04036H42.8738C41.1891 7.04036 39.8353 7.67582 38.8125 8.94673C37.7896 10.1874 37.2782 11.8214 37.2782 13.8488V21.6559C37.2782 23.6833 37.7746 25.3325 38.7674 26.6034C39.7601 27.844 41.0688 28.4643 42.6933 28.4643H47.5669C49.1613 28.4643 50.4549 27.844 51.4477 26.6034C52.4706 25.3627 52.982 23.7287 52.982 21.7013H59.1191C59.1191 24.1523 58.6378 26.3159 57.6751 28.192C56.7124 30.0379 55.3586 31.4752 53.6138 32.504C51.8689 33.5026 49.8533 34.0019 47.5669 34.0019H42.6933Z" fill="#FBF503"/>
</svg>
