<svg width="178" height="36" viewBox="0 0 178 36" fill="none" xmlns="http://www.w3.org/2000/svg">
<g clip-path="url(#clip0_1_1859)">
<path d="M113.88 28.7098L107.086 19.5587L100.299 28.7098H97.5027L105.671 17.6533L98.211 7.60309H101.007L107.086 15.7998L113.164 7.60309H115.958L108.504 17.6515L116.674 28.7098H113.88ZM60.936 28.7061L52.7585 17.6515L60.2183 7.60309H57.4223L51.3418 15.8016L45.267 7.60309H42.4784L49.9345 17.6515L41.7589 28.7061H44.5586L51.3456 19.5587L58.1381 28.7061H60.936Z" fill="#FBF503"/>
<path d="M76.4838 18.4506C76.0625 18.0942 75.5932 17.7979 75.0895 17.5701C75.8624 17.1625 76.5089 16.5536 76.9594 15.8089C77.41 15.0642 77.6477 14.2118 77.6469 13.3432C77.6469 11.9928 77.1455 7.60124 70.7332 7.60124H62.0972V16.7006H59.221C58.8482 17.1834 58 18.3433 57.6776 18.8187H62.0972V28.7061L70.7351 28.708C75.4138 28.708 78.3198 26.3513 78.3198 22.5462C78.3198 20.885 77.6879 19.4736 76.4838 18.4506ZM64.485 9.80441H70.7351C72.4258 9.80441 75.2591 10.2225 75.2591 13.1582C75.2591 15.378 73.6094 16.7006 70.7351 16.7006H64.485V9.80441ZM70.7332 26.5067H64.4831V18.8243H70.7332C73.1024 18.8243 75.9376 19.4736 75.9376 22.4999C75.9376 25.985 72.6774 26.5067 70.7332 26.5067ZM89.5544 7.11658C83.5801 7.11658 79.4047 11.6506 79.4047 18.1435C79.4047 24.6457 83.5801 29.176 89.5544 29.176C95.523 29.176 99.6872 24.6457 99.6872 18.1435C99.6872 11.6506 95.523 7.11658 89.5544 7.11658ZM89.5544 26.9432C85.0024 26.9432 81.813 23.3231 81.813 18.1435C81.813 12.9639 85.0024 9.34565 89.5544 9.34565C94.0989 9.34565 97.2696 12.9639 97.2696 18.1435C97.2696 23.3231 94.0989 26.9432 89.5544 26.9432ZM5.29642 5.34443L5.27965 5.35923V5.36108C3.60692 6.99543 2.27908 8.94415 1.37366 11.0934C0.468253 13.2427 0.00341727 15.5495 0.00630308 17.879C0.00100641 21.73 1.27457 25.4755 3.62998 28.536C3.65421 28.5656 3.69149 28.5822 3.72504 28.5656C3.75673 28.5471 3.7586 28.5082 3.74555 28.4749C2.39413 24.3276 9.30223 14.2755 12.8718 10.0615C12.883 10.0467 12.8979 10.0301 12.8979 10.0097C12.8979 9.98569 12.8812 9.9672 12.8644 9.9524C6.86034 4.02179 5.25728 5.37772 5.27965 5.35923L5.29642 5.34443ZM30.1738 5.34443L30.1906 5.35923V5.36108C31.8631 6.99546 33.1907 8.94422 34.0958 11.0935C35.0009 13.2428 35.4654 15.5496 35.462 17.879C35.4673 21.73 34.1938 25.4755 31.8384 28.536C31.816 28.5656 31.7768 28.5822 31.7433 28.5656C31.7135 28.5471 31.7116 28.5082 31.7228 28.4749C33.0742 24.3276 26.1717 14.2681 22.604 10.0523C22.5909 10.0375 22.5779 10.0208 22.5779 10.0023C22.5779 9.97644 22.5928 9.95795 22.6114 9.94315C28.6173 4.01254 30.2092 5.37772 30.1887 5.35923L30.1738 5.34443ZM17.7351 0.285095C21.3122 0.285095 24.2555 1.25811 26.9695 2.86008C27.0031 2.87673 27.0124 2.91373 26.9993 2.94703C26.9863 2.97847 26.949 2.98587 26.9136 2.97662C23.4819 2.24038 18.2645 5.18349 17.7724 5.47762C17.7612 5.48502 17.75 5.49241 17.7351 5.49241C17.7183 5.49241 17.7071 5.48502 17.696 5.47762C16.3874 4.73213 11.5652 2.22374 8.52865 2.99512C8.4951 3.00252 8.45782 2.99697 8.44291 2.96367C8.43655 2.94804 8.43606 2.93066 8.44153 2.9147C8.44701 2.89874 8.45808 2.88527 8.47273 2.87673C11.1868 1.25811 14.1673 0.285095 17.7351 0.285095ZM17.7351 14.3957C17.7556 14.3957 17.778 14.4124 17.791 14.4235C23.0961 18.4265 32.1757 28.3232 29.4039 31.122L29.4077 31.1183L29.4058 31.122H29.4021C26.1752 33.9328 22.0268 35.4803 17.7332 35.4747C13.4392 35.4799 9.29032 33.9325 6.06254 31.122L6.05881 31.1183L6.06254 31.122C3.29632 28.3232 12.3741 18.4265 17.6736 14.4235C17.6885 14.4124 17.7127 14.3957 17.7351 14.3957ZM157.948 7.60309V24.9232L145.091 7.59014L142.983 7.58644V28.6747H145.35V11.7375L157.944 28.6876L160.317 28.6913V7.60309H157.948ZM130.694 7.11288C124.719 7.11288 120.542 11.6487 120.542 18.1398C120.542 24.642 124.719 29.1797 130.694 29.1797C136.662 29.1797 140.826 24.642 140.826 18.1398C140.826 11.6506 136.662 7.11288 130.694 7.11288ZM130.694 26.9432C126.142 26.9432 122.952 23.3231 122.952 18.1398C122.952 12.9621 126.142 9.34195 130.694 9.34195C135.238 9.34195 138.409 12.9621 138.409 18.1398C138.409 23.3231 135.238 26.9432 130.694 26.9432ZM165.355 26.6269V18.8243H177.056V16.7598H165.355V9.65087H177.85V7.58829H162.975V28.6913H177.997V26.6269H165.355Z" fill="#FBF503"/>
</g>
<defs>
<clipPath id="clip0_1_1859">
<rect width="178" height="35.1878" fill="white" transform="translate(-6.10352e-05 0.285095)"/>
</clipPath>
</defs>
</svg>
